
<svg id="svg" xmlns="http://www.w3.org/2000/svg" xmlns:xlink="http://www.w3.org/1999/xlink" width="500" height="258.48563968668407" viewBox="0, 0, 500,258.48563968668407"><g id="svgg"><path id="path0" d="M1.305 1.305 C -2.087 4.698,4.565 11.097,11.485 11.097 C 14.813 11.097,18.930 13.641,18.930 15.699 C 18.930 16.021,19.811 16.741,20.888 17.298 C 21.965 17.855,22.846 18.758,22.846 19.305 C 22.846 21.212,24.789 24.036,27.073 25.447 C 28.338 26.229,29.373 27.261,29.373 27.739 C 29.373 28.218,30.745 29.817,32.422 31.293 C 35.118 33.666,35.526 34.383,35.947 37.482 C 36.451 41.194,39.800 45.637,42.811 46.588 C 43.602 46.837,44.826 48.413,45.732 50.346 C 47.635 54.409,51.508 57.850,55.463 58.991 C 57.853 59.681,58.705 60.354,59.907 62.502 C 60.782 64.069,62.730 66.019,64.648 67.250 C 67.373 68.998,68.021 69.807,68.627 72.210 C 69.682 76.401,74.813 80.287,79.291 80.287 C 82.656 80.287,86.417 82.440,88.558 85.591 C 90.953 89.118,95.281 90.705,99.448 89.583 C 101.869 88.932,102.435 89.019,104.818 90.409 C 107.100 91.739,108.132 91.925,111.999 91.698 C 120.239 91.214,126.912 91.359,130.793 92.108 C 133.632 92.655,135.262 92.657,137.070 92.115 C 140.775 91.005,141.647 91.196,142.373 93.277 C 143.011 95.108,144.436 95.903,147.193 95.964 C 147.955 95.981,149.413 97.207,150.696 98.911 C 153.076 102.069,153.394 102.151,159.724 101.249 C 162.070 100.914,163.579 101.023,164.619 101.600 C 165.561 102.123,167.235 102.296,169.100 102.063 L 172.077 101.692 171.810 103.987 C 171.589 105.879,171.811 106.424,173.075 107.090 C 173.918 107.534,174.807 108.204,175.050 108.577 C 175.696 109.571,183.875 110.266,187.663 109.649 C 191.408 109.040,193.249 109.848,194.768 112.767 C 196.277 115.669,198.552 117.368,201.943 118.128 C 205.867 119.007,207.349 119.749,209.856 122.087 C 210.933 123.091,212.548 124.010,213.444 124.130 C 214.580 124.281,215.418 125.080,216.210 126.768 C 216.836 128.099,217.865 129.452,218.498 129.773 C 219.848 130.458,228.901 130.756,229.887 130.147 C 231.013 129.450,237.797 129.686,239.823 130.492 C 242.558 131.580,246.168 134.591,250.263 139.197 C 251.771 140.893,252.984 141.645,254.215 141.645 C 256.463 141.645,259.565 144.456,260.894 147.699 C 261.650 149.542,262.829 150.700,265.580 152.295 C 267.944 153.667,269.656 155.220,270.377 156.647 C 271.818 159.498,273.055 160.153,276.203 159.731 C 278.638 159.404,278.798 159.496,279.749 161.777 C 280.297 163.090,281.579 165.046,282.598 166.123 C 283.617 167.200,284.667 168.815,284.930 169.713 C 285.621 172.072,286.533 173.003,289.482 174.363 C 290.923 175.027,292.542 175.851,293.081 176.193 C 293.619 176.535,294.799 176.968,295.702 177.155 C 296.667 177.354,297.689 178.245,298.181 179.315 C 300.551 184.476,301.071 185.110,303.572 185.890 C 304.971 186.327,306.666 186.684,307.338 186.684 C 309.273 186.684,311.985 192.472,311.555 195.681 C 311.364 197.105,311.556 198.889,311.986 199.693 C 312.664 200.961,312.584 201.187,311.346 201.511 C 309.793 201.917,309.805 202.491,311.498 208.518 C 312.281 211.305,312.693 211.824,314.493 212.290 C 316.210 212.735,316.580 213.152,316.580 214.647 C 316.580 217.503,320.854 225.618,322.606 226.087 C 325.272 226.801,326.085 226.590,324.700 225.543 C 324.004 225.016,322.902 224.575,322.253 224.564 C 321.588 224.552,321.259 224.240,321.501 223.849 C 321.736 223.468,321.505 222.660,320.986 222.054 C 319.091 219.844,319.085 219.344,320.964 220.324 C 324.102 221.961,324.792 221.395,322.385 219.158 C 321.129 217.991,319.703 216.008,319.216 214.752 C 318.728 213.495,317.583 211.655,316.670 210.662 C 315.418 209.301,315.002 208.130,314.979 205.906 C 314.962 204.283,314.654 202.746,314.295 202.490 C 313.601 201.994,313.354 200.302,313.130 194.486 L 312.990 190.865 314.827 191.781 C 315.838 192.285,316.927 193.388,317.249 194.233 C 318.115 196.511,320.292 198.433,322.007 198.433 C 323.598 198.433,325.718 201.781,325.718 204.294 C 325.718 205.853,328.685 209.389,329.397 208.679 C 329.686 208.390,329.491 207.860,328.963 207.501 C 328.184 206.972,328.245 206.887,329.282 207.051 C 330.129 207.185,330.707 207.963,330.991 209.354 C 331.546 212.065,333.315 214.752,334.545 214.752 C 335.075 214.752,335.509 215.179,335.509 215.700 C 335.509 216.222,336.537 217.137,337.794 217.733 C 339.050 218.329,340.078 219.072,340.078 219.384 C 340.078 219.943,341.606 221.772,345.809 226.245 C 346.986 227.497,347.788 228.784,347.590 229.104 C 346.389 231.047,348.100 234.986,350.116 234.922 C 352.022 234.861,352.049 234.828,350.537 234.406 C 348.182 233.750,347.988 230.313,350.207 228.567 C 351.098 227.866,351.828 226.975,351.828 226.587 C 351.828 225.729,348.084 223.707,347.343 224.165 C 346.762 224.523,344.331 222.048,340.425 217.121 C 339.038 215.373,336.966 213.550,335.819 213.071 C 333.838 212.244,332.597 210.300,332.114 207.269 C 331.986 206.466,331.118 205.759,329.793 205.379 C 328.070 204.885,327.676 204.440,327.676 202.988 C 327.676 202.007,327.236 200.839,326.697 200.392 C 326.159 199.945,325.718 199.285,325.718 198.926 C 325.718 198.500,326.002 198.506,326.534 198.944 C 326.983 199.312,328.084 199.716,328.982 199.842 C 330.195 200.011,330.578 200.424,330.473 201.452 C 330.387 202.301,331.150 203.578,332.453 204.763 C 333.619 205.824,334.987 207.947,335.493 209.481 C 336.129 211.408,336.929 212.464,338.082 212.901 C 339.001 213.249,340.445 214.175,341.291 214.959 C 342.772 216.330,342.821 216.335,342.588 215.079 C 342.455 214.362,341.196 213.179,339.791 212.450 C 337.249 211.130,335.536 208.900,337.705 209.732 C 339.564 210.445,338.874 209.254,335.509 205.940 C 332.559 203.034,330.964 200.138,333.061 201.495 C 333.958 202.076,343.504 203.599,343.940 203.232 C 344.666 202.621,342.909 202.046,339.112 201.653 C 334.420 201.168,331.260 199.126,329.788 195.629 C 328.843 193.384,329.065 192.718,330.274 194.175 C 330.728 194.722,331.394 195.170,331.753 195.170 C 332.135 195.170,332.089 194.788,331.641 194.249 C 330.725 193.145,331.160 192.822,334.379 192.218 C 335.727 191.965,336.997 191.486,337.203 191.153 C 337.416 190.808,336.902 190.718,336.005 190.943 C 334.984 191.199,334.136 190.980,333.586 190.316 C 333.088 189.716,331.711 189.295,330.246 189.295 C 328.875 189.295,327.553 188.972,327.309 188.577 C 327.057 188.169,326.055 188.020,324.995 188.232 C 323.717 188.488,322.139 188.100,320.015 187.009 C 317.268 185.598,317.350 184.727,320.170 185.374 C 320.529 185.456,321.594 185.591,322.537 185.675 C 323.481 185.758,325.243 186.434,326.454 187.178 C 328.390 188.367,329.347 188.486,334.394 188.166 C 339.674 187.831,340.237 187.914,341.437 189.201 C 342.154 189.971,343.356 190.601,344.109 190.601 C 344.861 190.601,346.157 191.335,346.989 192.232 C 347.821 193.130,349.204 193.864,350.063 193.864 C 350.923 193.864,352.115 194.405,352.713 195.066 C 353.311 195.727,355.450 196.829,357.467 197.514 C 359.483 198.199,361.217 199.054,361.321 199.413 C 361.425 199.772,361.675 200.826,361.877 201.756 C 362.079 202.686,363.127 204.449,364.206 205.673 C 365.284 206.897,366.172 208.243,366.178 208.664 C 366.183 209.085,367.052 210.294,368.108 211.350 C 369.478 212.719,369.922 213.676,369.658 214.685 C 369.446 215.499,369.706 216.577,370.272 217.221 C 370.813 217.838,371.458 219.008,371.707 219.822 C 371.961 220.657,373.132 221.708,374.395 222.236 C 376.797 223.240,377.698 227.785,375.859 229.624 C 374.877 230.606,375.464 231.227,376.865 230.690 C 377.455 230.463,377.937 229.698,377.937 228.988 C 377.937 228.235,378.277 227.820,378.753 227.991 C 379.202 228.151,380.043 228.040,380.621 227.744 C 381.361 227.365,382.122 227.682,383.183 228.811 C 384.716 230.443,387.321 230.953,388.055 229.765 C 388.281 229.399,387.769 229.112,386.889 229.112 C 386.026 229.112,384.815 228.554,384.197 227.871 C 383.579 227.189,382.100 226.448,380.911 226.225 C 379.162 225.897,378.672 225.443,378.356 223.862 C 378.050 222.333,377.531 221.818,375.979 221.508 C 372.775 220.867,372.501 219.728,375.377 219.006 C 376.692 218.676,377.525 219.022,379.218 220.604 C 381.475 222.712,382.165 222.851,381.478 221.060 C 380.784 219.252,376.792 217.181,374.910 217.653 C 372.872 218.165,371.461 216.632,371.431 213.872 C 371.417 212.665,370.722 211.370,369.452 210.183 C 368.375 209.177,367.482 207.957,367.467 207.473 C 367.452 206.989,366.571 205.576,365.509 204.333 C 364.446 203.090,363.573 201.327,363.567 200.416 C 363.552 197.983,362.985 197.454,358.885 196.047 L 355.172 194.773 357.107 194.042 C 358.845 193.386,359.149 193.473,360.080 194.893 C 360.650 195.763,361.653 196.475,362.310 196.475 C 363.793 196.475,365.358 198.637,366.242 201.909 C 367.219 205.522,369.845 208.225,372.379 208.225 C 373.762 208.225,374.904 208.761,375.857 209.856 C 376.743 210.876,377.951 211.480,379.075 211.467 C 380.744 211.448,380.789 211.382,379.687 210.547 C 378.556 209.689,378.568 209.625,379.932 209.192 C 381.285 208.763,382.019 209.279,382.733 211.162 C 382.869 211.521,383.176 211.635,383.415 211.416 C 384.816 210.127,382.426 207.414,380.207 207.774 C 378.958 207.977,377.937 207.867,377.937 207.531 C 377.937 207.194,377.644 206.919,377.285 206.919 C 376.926 206.919,376.044 206.332,375.326 205.614 C 374.547 204.834,373.151 204.308,371.861 204.308 C 369.334 204.308,367.799 203.262,367.311 201.205 C 366.947 199.671,369.209 198.456,370.707 199.381 C 371.079 199.611,371.993 199.473,372.739 199.074 C 373.825 198.492,374.549 198.616,376.380 199.696 C 377.636 200.438,379.066 201.044,379.556 201.044 C 380.047 201.044,381.321 201.779,382.387 202.676 C 384.388 204.359,386.681 204.744,388.366 203.678 C 389.688 202.843,391.606 204.641,391.171 206.307 C 390.677 208.197,391.992 209.336,395.227 209.821 C 399.248 210.424,401.936 211.911,403.110 214.181 C 404.489 216.847,406.927 217.913,408.465 216.520 C 409.677 215.423,410.681 215.707,411.451 217.363 C 413.553 221.886,414.929 223.566,416.559 223.595 C 417.506 223.612,418.677 223.951,419.160 224.349 C 419.644 224.746,421.508 225.550,423.304 226.135 C 426.165 227.067,426.712 227.543,427.722 229.985 C 429.088 233.289,434.210 237.885,436.002 237.416 C 436.811 237.205,437.429 237.607,437.907 238.656 C 438.302 239.523,439.180 240.209,439.895 240.209 C 440.600 240.209,441.358 240.503,441.580 240.862 C 441.802 241.221,442.962 241.514,444.159 241.514 C 446.423 241.514,447.128 242.342,447.128 245.001 C 447.128 246.806,449.442 248.450,449.987 247.032 C 450.187 246.510,450.800 246.084,451.350 246.084 C 451.900 246.084,452.350 245.766,452.350 245.379 C 452.350 244.943,451.636 244.831,450.474 245.086 C 448.692 245.478,447.085 243.080,448.309 241.856 C 448.887 241.279,451.697 241.478,451.697 242.096 C 451.697 242.416,452.412 242.858,453.285 243.077 C 454.159 243.296,455.060 244.062,455.288 244.780 C 455.516 245.498,456.275 246.084,456.979 246.084 C 457.741 246.084,458.507 246.742,458.877 247.715 C 459.219 248.613,459.799 249.347,460.167 249.347 C 460.535 249.347,460.836 249.949,460.836 250.685 C 460.836 251.421,461.334 252.963,461.944 254.112 C 462.554 255.261,462.969 256.789,462.867 257.507 C 462.717 258.559,462.844 258.654,463.519 257.997 C 464.202 257.335,464.151 256.604,463.246 254.081 C 462.635 252.375,462.136 250.600,462.138 250.137 C 462.143 248.789,459.338 245.340,457.735 244.723 C 456.927 244.412,456.266 243.742,456.266 243.233 C 456.266 242.725,455.532 242.124,454.634 241.899 C 453.737 241.674,453.003 241.065,453.003 240.546 C 453.003 238.854,450.577 238.105,447.334 238.797 C 443.713 239.569,440.850 238.760,438.910 236.415 C 438.032 235.355,437.166 234.913,436.480 235.176 C 435.846 235.419,435.076 235.128,434.581 234.459 C 434.122 233.839,432.972 232.838,432.024 232.234 C 430.585 231.316,427.715 225.461,428.379 224.798 C 428.778 224.398,435.195 224.353,435.829 224.745 C 436.207 224.978,436.691 226.048,436.906 227.123 C 437.386 229.521,439.983 230.476,441.607 228.852 C 442.182 228.277,442.942 227.807,443.297 227.807 C 443.651 227.807,443.803 227.583,443.634 227.310 C 443.466 227.037,444.990 226.858,447.023 226.911 C 451.315 227.025,453.176 226.657,452.646 225.800 C 452.417 225.429,451.804 225.442,451.070 225.835 C 450.177 226.313,449.774 226.230,449.498 225.510 C 449.058 224.362,447.044 224.236,445.989 225.290 C 445.429 225.851,444.755 225.835,443.287 225.227 C 442.212 224.782,441.015 224.613,440.628 224.852 C 440.241 225.092,438.886 224.646,437.617 223.862 C 435.965 222.841,434.744 222.549,433.322 222.833 C 430.091 223.479,428.331 222.715,427.834 220.452 C 427.591 219.346,426.139 217.206,424.608 215.696 C 422.865 213.978,422.008 212.651,422.318 212.150 C 422.676 211.571,422.939 211.552,423.266 212.081 C 424.441 213.983,428.903 215.521,430.400 214.540 C 431.194 214.020,432.418 213.428,433.121 213.225 C 433.824 213.021,433.298 212.929,431.952 213.020 C 430.605 213.110,429.504 212.914,429.504 212.583 C 429.504 212.252,429.080 212.333,428.562 212.763 C 427.810 213.387,427.138 213.216,425.221 211.914 C 422.408 210.002,421.097 210.277,420.575 212.890 C 420.157 214.979,419.370 215.782,418.740 214.763 C 418.515 214.398,417.305 214.099,416.052 214.099 C 413.151 214.099,410.141 212.554,409.576 210.774 C 409.222 209.659,408.778 209.465,407.270 209.767 C 406.243 209.972,405.228 209.856,405.013 209.509 C 404.798 209.161,404.053 208.877,403.356 208.877 C 402.433 208.877,402.089 208.425,402.089 207.214 C 402.089 204.684,399.095 202.416,395.825 202.468 C 394.302 202.493,392.394 202.015,391.392 201.359 C 389.957 200.419,389.332 200.344,387.997 200.952 C 385.855 201.928,385.409 201.895,384.185 200.671 C 381.287 197.773,385.532 195.976,397.240 195.145 C 405.555 194.554,406.940 194.286,409.035 192.864 C 410.341 191.978,411.719 191.253,412.098 191.253 C 412.477 191.253,413.576 190.498,414.540 189.574 C 416.211 187.973,416.465 187.926,419.964 188.573 C 424.053 189.329,425.314 189.067,426.281 187.260 C 426.643 186.584,427.457 186.031,428.091 186.031 C 428.724 186.031,429.522 185.759,429.863 185.425 C 430.245 185.052,431.726 185.054,433.715 185.430 C 437.762 186.195,444.311 185.118,446.179 183.380 C 447.237 182.396,448.671 182.102,453.092 181.966 L 458.669 181.794 462.737 185.125 C 468.366 189.735,480.740 191.845,483.859 188.726 C 484.264 188.321,485.961 187.990,487.631 187.990 C 489.616 187.990,491.730 187.425,493.736 186.358 C 495.424 185.460,497.524 184.726,498.403 184.726 C 499.281 184.726,500.000 184.432,500.000 184.073 C 500.000 182.985,495.886 183.347,493.799 184.619 C 492.722 185.275,489.991 186.005,487.731 186.241 C 485.471 186.477,483.067 186.967,482.389 187.330 C 480.882 188.136,472.146 188.211,471.658 187.421 C 471.465 187.108,470.430 186.677,469.358 186.463 C 468.287 186.249,466.151 184.872,464.612 183.404 C 461.075 180.028,457.952 178.648,454.917 179.119 C 453.636 179.318,451.727 179.239,450.674 178.943 C 448.446 178.317,444.938 179.520,443.975 181.241 C 443.352 182.354,442.784 182.390,431.299 182.025 C 428.687 181.943,424.831 183.278,423.917 184.583 C 423.118 185.723,422.685 185.786,419.687 185.193 C 416.297 184.523,411.880 185.701,411.880 187.276 C 411.880 187.613,410.778 188.242,409.432 188.674 C 408.086 189.106,406.465 189.914,405.830 190.468 C 404.982 191.210,402.822 191.532,397.671 191.685 C 387.294 191.995,386.259 192.141,383.667 193.671 L 381.294 195.071 380.651 193.225 C 380.127 191.723,379.335 191.183,376.404 190.331 C 374.422 189.755,372.268 188.624,371.616 187.817 C 369.992 185.808,367.166 184.073,365.518 184.073 C 361.725 184.073,357.871 182.049,356.694 179.440 C 355.909 177.699,354.986 176.730,353.844 176.449 C 352.914 176.221,351.506 175.614,350.714 175.102 C 349.922 174.589,348.976 174.354,348.612 174.579 C 348.248 174.804,347.074 174.535,346.005 173.982 C 344.935 173.429,343.253 172.977,342.268 172.977 C 341.203 172.977,339.716 172.249,338.603 171.181 C 335.226 167.947,327.234 168.945,322.605 173.179 C 321.663 174.040,320.065 174.595,318.215 174.702 C 316.615 174.795,314.731 175.179,314.028 175.556 C 311.668 176.819,302.583 176.418,301.294 174.994 C 300.674 174.309,299.233 173.377,298.092 172.922 C 296.952 172.468,295.239 171.560,294.286 170.904 C 293.333 170.249,292.074 169.713,291.488 169.713 C 290.859 169.713,289.934 168.579,289.226 166.939 C 288.567 165.413,287.371 163.577,286.569 162.859 C 285.766 162.141,284.510 160.380,283.778 158.945 C 282.080 155.618,280.904 154.747,278.068 154.716 C 276.194 154.695,275.498 154.272,274.199 152.364 C 273.327 151.085,271.341 149.391,269.785 148.600 L 266.956 147.162 268.854 144.893 C 270.706 142.678,270.803 142.645,272.941 143.514 C 278.126 145.622,282.386 146.902,283.375 146.649 C 284.147 146.452,284.673 147.118,285.286 149.070 C 286.291 152.266,287.663 154.047,289.121 154.047 C 289.703 154.047,290.683 154.634,291.298 155.352 C 291.956 156.121,293.223 156.658,294.380 156.658 C 295.474 156.658,296.923 157.236,297.650 157.963 C 298.463 158.777,299.826 159.269,301.263 159.269 C 302.532 159.269,304.328 159.765,305.254 160.372 C 306.375 161.106,308.495 161.516,311.595 161.597 C 314.157 161.664,317.109 162.060,318.154 162.477 C 319.246 162.911,321.224 163.058,322.801 162.822 C 325.651 162.395,328.184 163.290,331.554 165.917 C 332.740 166.842,334.043 167.123,336.660 167.017 C 340.031 166.880,340.271 166.985,342.574 169.589 C 344.965 172.292,348.099 173.994,349.310 173.245 C 349.661 173.028,348.744 172.256,347.273 171.528 C 345.801 170.800,344.165 169.368,343.637 168.346 C 342.283 165.727,340.290 164.833,336.325 165.064 C 334.239 165.186,332.898 164.996,332.898 164.579 C 332.898 162.902,326.736 160.250,322.454 160.083 C 311.142 159.642,309.371 159.372,306.035 157.586 C 305.082 157.076,303.513 156.658,302.548 156.658 C 301.583 156.658,300.047 156.070,299.134 155.352 C 298.221 154.634,296.678 154.047,295.705 154.047 C 294.732 154.047,293.404 153.460,292.755 152.742 C 292.105 152.023,291.024 151.436,290.352 151.436 C 289.517 151.436,289.008 150.815,288.737 149.464 C 288.521 148.380,288.087 147.334,287.775 147.141 C 286.240 146.192,287.211 143.691,289.093 143.744 C 290.131 143.774,291.967 143.201,293.173 142.472 C 296.980 140.170,301.239 139.948,303.593 141.929 C 304.688 142.850,306.131 143.603,306.800 143.603 C 307.469 143.603,308.198 143.897,308.420 144.256 C 308.950 145.113,314.356 145.097,315.970 144.233 C 317.028 143.666,317.232 143.775,317.232 144.902 C 317.232 145.882,317.778 146.356,319.242 146.649 C 320.606 146.921,321.457 147.597,321.894 148.754 C 322.722 150.945,325.678 154.047,326.940 154.047 C 327.477 154.047,329.169 154.653,330.699 155.394 C 334.547 157.257,338.307 154.517,336.396 151.243 C 336.144 150.811,336.506 150.953,337.200 151.560 C 337.895 152.167,339.450 152.635,340.660 152.601 C 342.260 152.555,343.180 152.964,344.050 154.108 C 345.084 155.470,345.419 155.570,346.568 154.863 C 348.575 153.628,348.945 153.807,350.952 156.983 C 352.233 159.012,353.251 159.920,354.245 159.921 C 355.036 159.921,356.431 160.263,357.345 160.679 C 358.615 161.258,359.413 161.252,360.724 160.655 C 362.098 160.029,362.652 160.050,363.498 160.760 C 365.817 162.706,369.596 163.348,372.223 162.242 C 374.084 161.458,374.945 161.386,375.832 161.939 C 376.644 162.446,378.210 162.483,381.006 162.060 C 384.014 161.604,385.395 161.663,386.535 162.296 C 388.330 163.292,389.034 163.388,389.034 162.637 C 389.034 160.924,382.610 159.599,379.700 160.713 C 378.333 161.236,377.478 161.202,376.311 160.577 C 375.022 159.887,374.233 159.912,371.779 160.720 C 369.279 161.543,368.691 161.557,368.071 160.810 C 367.665 160.321,366.856 159.912,366.271 159.901 C 364.456 159.865,362.851 158.298,363.730 157.419 C 364.783 156.366,366.017 156.468,366.685 157.662 C 367.102 158.407,367.644 158.519,368.791 158.094 L 370.335 157.523 368.751 157.032 L 367.167 156.542 368.799 156.054 C 369.696 155.786,371.106 155.810,371.931 156.108 C 372.889 156.454,374.206 156.325,375.578 155.752 C 377.084 155.123,378.073 155.050,378.893 155.509 C 382.248 157.387,387.565 153.246,386.855 149.307 C 386.479 147.223,386.489 147.214,387.507 148.662 C 388.805 150.507,392.168 150.630,394.024 148.901 C 396.391 146.696,400.459 146.478,402.781 148.432 L 404.778 150.112 415.790 149.836 C 424.813 149.610,426.942 149.729,427.580 150.498 C 428.538 151.652,430.275 151.709,431.362 150.623 C 431.913 150.071,434.165 149.843,438.346 149.913 C 441.740 149.971,444.517 149.768,444.517 149.462 C 444.517 149.156,444.003 148.892,443.375 148.874 C 442.746 148.856,440.814 148.682,439.082 148.487 C 437.349 148.291,434.429 148.404,432.593 148.738 C 430.059 149.199,428.931 149.133,427.911 148.464 C 426.883 147.791,424.068 147.636,415.959 147.807 C 410.126 147.931,405.352 147.794,405.352 147.503 C 405.352 146.265,400.710 144.119,398.960 144.547 C 397.988 144.784,396.640 144.978,395.963 144.978 C 395.286 144.977,393.790 145.696,392.637 146.575 C 390.547 148.169,390.539 148.169,389.360 146.867 C 386.877 144.122,383.554 145.776,383.928 149.570 C 384.201 152.338,382.121 153.628,379.176 152.517 C 377.724 151.969,376.942 151.989,375.965 152.599 C 374.084 153.774,367.427 152.900,366.314 151.332 C 365.845 150.671,364.886 150.131,364.184 150.131 C 363.481 150.131,362.397 149.856,361.773 149.521 C 357.941 147.460,350.849 146.995,349.913 148.744 C 348.369 151.630,345.849 150.707,343.912 146.546 C 341.608 141.596,332.898 142.901,332.898 148.197 C 332.898 152.070,326.868 150.800,324.619 146.454 C 323.901 145.066,322.752 143.845,322.066 143.742 C 321.380 143.639,320.319 142.684,319.709 141.621 C 318.442 139.414,316.908 139.185,314.118 140.786 C 311.803 142.114,309.379 141.325,303.892 137.457 C 301.762 135.955,294.597 136.705,291.463 138.758 C 288.593 140.639,284.148 140.443,283.280 138.398 C 282.895 137.491,281.573 136.015,280.342 135.117 C 278.693 133.915,278.099 132.986,278.086 131.587 C 278.072 130.170,277.285 128.969,274.982 126.854 C 271.453 123.615,272.049 123.297,277.135 125.703 C 279.503 126.823,281.507 127.314,283.133 127.172 C 285.246 126.987,285.602 127.156,285.783 128.428 C 286.024 130.122,287.233 130.902,290.600 131.534 C 291.915 131.780,293.149 132.394,293.342 132.897 C 293.920 134.403,303.685 132.561,303.558 130.970 C 303.458 129.711,303.621 129.743,304.627 131.178 C 305.232 132.043,305.899 133.797,306.107 135.077 L 306.485 137.402 310.336 137.402 C 313.825 137.402,314.287 137.236,315.265 135.629 C 316.275 133.967,316.413 133.925,317.441 134.953 C 318.400 135.913,318.538 135.923,318.538 135.032 C 318.538 133.889,316.540 131.854,315.417 131.854 C 314.061 131.854,311.395 130.363,311.743 129.800 C 311.932 129.494,311.287 129.243,310.308 129.243 C 307.644 129.243,308.652 128.726,314.023 127.340 C 319.630 125.893,316.776 125.354,310.806 126.732 C 307.135 127.579,304.533 126.891,302.430 124.517 C 301.240 123.174,301.241 123.174,305.289 123.584 C 307.517 123.810,309.492 123.746,309.680 123.443 C 310.053 122.839,313.251 123.249,314.295 124.035 C 315.058 124.609,319.635 125.419,323.405 125.646 C 324.857 125.734,327.604 126.134,329.511 126.535 C 332.682 127.204,333.140 127.145,334.896 125.847 C 338.032 123.528,337.288 122.419,334.035 124.564 C 331.898 125.973,328.207 125.750,328.784 124.247 C 329.063 123.521,328.772 123.396,327.526 123.709 C 326.473 123.973,325.547 123.756,324.879 123.089 C 323.758 121.967,321.963 121.773,320.615 122.628 C 319.631 123.252,313.703 122.377,311.543 121.289 C 310.453 120.740,309.857 120.759,309.124 121.368 C 308.589 121.812,307.895 122.017,307.581 121.823 C 306.111 120.914,298.211 120.107,297.021 120.745 C 296.042 121.269,295.583 121.150,294.915 120.199 C 293.758 118.553,286.486 117.755,282.545 118.842 C 280.980 119.274,278.696 119.725,277.469 119.844 C 276.242 119.964,274.935 120.365,274.564 120.736 C 273.685 121.616,269.854 121.601,268.192 120.712 C 267.256 120.211,266.639 120.220,266.007 120.745 C 265.326 121.310,264.659 121.019,263.067 119.464 C 261.305 117.741,260.685 117.511,258.772 117.870 C 255.933 118.403,253.264 117.749,253.264 116.520 C 253.264 115.529,245.776 110.313,244.353 110.313 C 243.902 110.313,243.046 109.285,242.450 108.029 C 241.040 105.057,239.758 105.117,235.490 108.352 C 231.873 111.094,230.142 111.584,229.547 110.034 C 229.350 109.521,228.364 109.007,227.356 108.892 C 225.706 108.703,225.522 108.434,225.522 106.210 C 225.522 103.101,224.441 102.349,220.448 102.684 C 217.604 102.922,217.171 102.761,215.482 100.836 C 212.115 97.002,201.044 96.230,196.475 99.511 C 194.860 100.671,193.181 101.825,192.745 102.074 C 192.231 102.369,191.373 101.386,190.307 99.281 C 189.402 97.495,187.629 95.247,186.367 94.284 C 185.105 93.322,184.073 91.998,184.073 91.343 C 184.073 88.193,178.154 87.143,173.645 89.494 C 171.758 90.478,170.224 90.785,168.240 90.575 C 166.604 90.403,164.721 90.656,163.640 91.195 C 161.942 92.041,161.335 91.909,155.155 89.352 C 151.494 87.838,147.531 86.427,146.349 86.217 C 143.781 85.761,143.371 84.660,145.598 84.203 C 146.476 84.024,148.206 83.325,149.445 82.651 C 151.361 81.607,152.015 81.540,153.840 82.200 C 155.195 82.690,156.376 82.756,157.048 82.379 C 157.765 81.978,158.889 82.154,160.486 82.917 C 165.004 85.075,166.894 85.148,169.148 83.251 C 170.267 82.309,171.513 81.679,171.916 81.850 C 175.523 83.378,177.552 83.677,179.565 82.975 C 181.011 82.471,181.921 82.443,182.367 82.890 C 182.731 83.253,183.778 83.544,184.693 83.537 C 186.104 83.524,185.935 83.331,183.584 82.263 C 182.058 81.570,180.809 80.856,180.809 80.676 C 180.809 79.936,185.682 79.024,186.305 79.647 C 186.657 79.999,187.443 80.287,188.052 80.287 C 188.662 80.287,190.117 81.389,191.286 82.735 C 194.401 86.321,198.680 87.769,205.421 87.520 C 207.331 87.450,209.360 88.022,212.093 89.401 C 214.253 90.492,216.424 91.384,216.917 91.384 C 217.410 91.384,218.345 91.971,218.995 92.689 C 220.991 94.895,227.274 94.268,226.661 91.925 C 226.408 90.956,226.185 90.839,225.796 91.469 C 225.177 92.471,220.827 92.888,220.277 91.999 C 220.068 91.660,220.281 91.374,220.751 91.363 C 221.277 91.350,221.117 90.972,220.335 90.381 C 219.635 89.852,218.551 89.582,217.925 89.781 C 217.299 89.980,215.374 89.407,213.648 88.509 C 211.922 87.610,210.890 86.862,211.356 86.845 C 211.822 86.828,212.886 86.078,213.720 85.178 C 215.046 83.748,215.340 83.665,216.053 84.525 C 217.033 85.706,220.701 85.737,223.875 84.591 C 226.053 83.804,226.226 83.858,228.195 85.946 C 229.872 87.724,230.707 88.108,232.779 88.052 L 235.313 87.983 232.791 87.202 C 231.367 86.760,229.493 85.469,228.487 84.237 L 226.705 82.053 223.549 83.129 C 219.480 84.515,218.897 84.487,216.813 82.796 C 215.514 81.742,215.406 81.508,216.384 81.863 C 219.009 82.816,221.131 83.013,221.546 82.342 C 221.797 81.935,220.905 81.366,219.368 80.953 C 217.937 80.567,216.589 79.966,216.373 79.617 C 215.723 78.566,213.811 78.900,212.995 80.208 C 210.547 84.128,205.427 82.640,201.474 76.860 C 199.386 73.806,198.570 73.107,197.092 73.107 C 193.901 73.107,193.219 72.509,193.107 69.610 C 193.006 66.987,192.995 66.974,192.744 69.191 C 192.432 71.946,191.081 73.107,188.187 73.107 C 186.692 73.107,185.584 73.612,184.604 74.739 C 183.823 75.636,182.787 76.371,182.301 76.371 C 181.814 76.371,180.675 76.856,179.770 77.449 C 178.446 78.317,176.760 78.492,171.144 78.342 C 161.036 78.073,158.719 78.232,157.076 79.308 C 155.900 80.079,155.215 80.122,153.634 79.525 C 151.924 78.880,151.159 79.018,147.888 80.566 C 145.812 81.547,142.898 82.475,141.411 82.627 C 139.924 82.778,137.885 83.085,136.879 83.309 C 135.551 83.605,134.658 83.355,133.615 82.397 C 131.292 80.263,125.618 78.137,123.216 78.500 C 122.043 78.678,120.349 78.467,119.452 78.032 C 118.554 77.597,116.057 76.883,113.903 76.444 C 111.749 76.006,109.106 75.322,108.029 74.924 C 105.610 74.031,102.027 74.087,100.884 75.036 C 100.285 75.533,99.499 75.545,98.262 75.075 C 97.291 74.705,96.283 74.535,96.021 74.697 C 95.760 74.858,94.096 73.893,92.323 72.552 C 86.049 67.805,79.260 64.506,76.161 64.696 C 72.651 64.912,68.246 61.807,64.428 56.426 C 62.640 53.905,61.476 52.872,60.424 52.872 C 56.103 52.872,53.536 50.626,50.928 44.564 C 49.888 42.147,48.953 41.010,47.515 40.414 C 44.550 39.186,43.082 37.274,43.077 34.635 C 43.071 31.721,42.157 30.425,35.081 23.301 C 31.942 20.140,29.373 17.025,29.373 16.379 C 29.373 15.733,28.646 14.500,27.757 13.640 C 24.935 10.908,24.235 10.183,21.552 7.211 C 19.015 4.401,18.782 4.296,14.523 4.040 C 11.533 3.861,9.698 3.405,8.812 2.622 C 5.582 -0.233,3.252 -0.641,1.305 1.305 M79.551 70.779 C 82.842 72.481,83.408 73.763,80.857 73.739 C 78.921 73.721,75.065 71.365,75.065 70.201 C 75.065 69.507,77.763 69.855,79.551 70.779 M191.266 75.407 C 192.190 76.521,192.210 76.490,189.924 77.467 C 188.102 78.245,184.866 76.422,185.694 75.084 C 186.330 74.054,190.337 74.287,191.266 75.407 M198.755 76.362 C 199.310 77.434,200.712 79.395,201.873 80.720 C 203.912 83.049,203.929 83.116,202.384 82.715 C 201.491 82.483,200.374 82.642,199.854 83.074 C 197.877 84.714,194.956 84.177,192.953 81.804 L 191.063 79.564 192.525 78.541 C 193.548 77.824,193.897 77.052,193.689 75.965 C 193.199 73.399,197.393 73.728,198.755 76.362 M96.496 80.831 C 97.862 81.712,98.341 81.696,101.180 80.675 C 103.657 79.784,104.643 79.698,105.725 80.277 C 106.484 80.683,107.901 80.938,108.873 80.844 C 109.845 80.749,112.364 81.204,114.472 81.854 L 118.304 83.037 115.703 84.201 C 112.670 85.559,110.113 85.529,107.376 84.104 C 104.550 82.633,101.436 82.178,99.423 82.944 C 97.274 83.761,94.811 82.853,93.198 80.649 C 91.881 78.848,93.567 78.941,96.496 80.831 M167.790 82.179 C 167.235 83.217,166.743 83.333,164.778 82.889 C 161.629 82.179,160.948 81.315,163.894 81.768 C 165.181 81.966,166.650 81.866,167.158 81.544 C 168.467 80.715,168.536 80.785,167.790 82.179 M124.148 84.600 C 122.962 85.118,121.660 85.337,121.254 85.087 C 120.325 84.512,122.401 83.640,124.674 83.650 C 126.175 83.657,126.133 83.733,124.148 84.600 M213.295 84.331 C 213.008 85.193,209.826 86.240,209.249 85.663 C 208.828 85.242,211.398 83.710,212.685 83.615 C 213.164 83.580,213.438 83.902,213.295 84.331 M204.961 85.579 C 204.961 86.270,203.933 86.308,201.697 85.700 L 200.065 85.256 201.697 84.840 C 203.523 84.373,204.961 84.699,204.961 85.579 M183.190 99.217 C 183.533 99.217,184.450 100.527,185.228 102.128 L 186.642 105.040 184.542 105.389 C 180.501 106.059,177.872 104.988,177.872 102.669 C 177.872 99.975,175.337 97.258,172.824 97.258 C 171.735 97.258,171.111 96.983,171.345 96.606 C 171.567 96.247,172.556 95.953,173.543 95.953 C 174.530 95.953,175.904 95.539,176.596 95.033 C 177.740 94.196,178.069 94.345,180.211 96.665 C 181.507 98.068,182.847 99.217,183.190 99.217 M208.388 102.732 C 209.016 103.029,209.971 103.104,210.509 102.897 C 211.048 102.690,211.488 102.756,211.488 103.043 C 211.488 105.141,218.974 108.441,220.430 106.985 C 220.951 106.464,221.274 106.865,221.612 108.454 C 222.167 111.063,223.668 112.924,225.217 112.924 C 225.835 112.924,226.707 113.365,227.154 113.903 C 228.676 115.737,233.168 115.144,236.254 112.701 L 239.010 110.520 240.865 112.375 C 241.885 113.395,243.327 114.230,244.070 114.230 C 244.812 114.230,245.787 114.817,246.235 115.535 C 246.683 116.253,247.436 116.841,247.906 116.841 C 248.377 116.841,249.070 117.722,249.445 118.799 C 249.821 119.876,250.585 120.757,251.143 120.757 C 251.701 120.757,254.096 121.675,256.464 122.796 C 258.833 123.917,261.945 124.969,263.381 125.134 C 269.376 125.822,274.804 129.680,274.804 133.253 C 274.804 135.296,275.096 135.914,276.273 136.362 C 278.154 137.079,281.332 140.249,281.332 141.408 C 281.332 142.728,280.149 142.509,275.561 140.339 C 270.482 137.936,267.937 137.784,267.382 139.850 L 266.987 141.319 265.510 139.579 C 264.698 138.623,263.100 137.378,261.959 136.812 C 260.817 136.247,259.707 135.228,259.491 134.548 C 258.645 131.882,252.185 126.632,249.751 126.632 C 248.494 126.632,247.267 126.310,247.024 125.916 C 246.781 125.523,245.662 125.340,244.538 125.510 C 243.413 125.681,241.725 125.428,240.786 124.949 C 238.914 123.994,228.906 123.754,227.199 124.623 C 224.969 125.758,221.432 124.660,220.563 122.562 C 220.009 121.224,218.837 120.181,216.948 119.345 C 215.411 118.665,213.973 117.818,213.754 117.462 C 213.110 116.420,207.340 113.702,203.974 112.854 C 201.594 112.255,200.623 111.611,199.815 110.095 C 199.234 109.008,198.099 107.477,197.291 106.693 L 195.822 105.268 198.176 103.711 C 200.622 102.092,205.958 101.581,208.388 102.732 M290.033 120.920 C 290.966 121.601,290.526 121.700,287.384 121.516 C 285.312 121.394,283.337 121.027,282.996 120.700 C 282.029 119.772,288.747 119.982,290.033 120.920 M293.734 121.084 C 294.187 121.630,294.258 122.063,293.894 122.063 C 293.535 122.063,292.875 121.622,292.428 121.084 C 291.975 120.537,291.904 120.104,292.268 120.104 C 292.627 120.104,293.287 120.545,293.734 121.084 M280.984 123.081 C 282.130 123.678,283.590 123.923,284.557 123.681 C 286.128 123.286,296.766 125.494,299.110 126.701 C 299.733 127.022,300.652 127.285,301.151 127.285 C 301.651 127.285,302.395 127.689,302.806 128.184 C 303.662 129.215,302.039 129.871,298.597 129.887 C 297.502 129.892,296.285 130.217,295.893 130.609 C 295.377 131.125,294.753 131.091,293.641 130.488 C 292.794 130.029,291.102 129.487,289.879 129.284 C 288.397 129.038,287.598 128.517,287.482 127.722 C 287.066 124.891,286.637 124.545,284.081 124.977 C 282.415 125.258,280.981 125.065,279.676 124.385 C 278.612 123.830,277.301 123.370,276.762 123.362 C 275.892 123.350,275.892 123.278,276.762 122.715 C 278.099 121.852,278.733 121.907,280.984 123.081 M310.527 131.201 L 312.186 132.507 310.220 132.507 C 307.228 132.507,306.023 130.551,308.644 129.947 C 308.767 129.919,309.614 130.483,310.527 131.201 M254.569 134.791 C 255.412 135.689,255.791 136.423,255.411 136.423 C 255.030 136.423,254.238 135.689,253.650 134.791 C 253.062 133.894,252.683 133.159,252.809 133.159 C 252.934 133.159,253.726 133.894,254.569 134.791 M314.594 134.515 C 314.101 135.438,313.519 135.726,312.776 135.417 C 311.468 134.872,310.842 134.881,308.910 135.473 C 307.822 135.806,307.441 135.658,307.441 134.903 C 307.441 134.156,308.271 133.818,310.542 133.639 C 312.247 133.505,314.020 133.342,314.481 133.277 C 315.131 133.186,315.156 133.465,314.594 134.515 M340.512 147.030 C 342.052 149.490,340.669 150.978,338.053 149.673 C 335.881 148.590,335.684 147.863,337.304 146.919 C 338.853 146.017,339.901 146.053,340.512 147.030 M359.008 151.810 C 362.838 152.817,367.119 155.352,364.989 155.352 C 364.529 155.352,363.025 156.260,361.645 157.368 C 359.560 159.044,358.913 159.264,357.810 158.674 C 357.080 158.283,355.880 157.963,355.144 157.963 C 352.890 157.963,350.447 153.464,351.679 151.583 C 352.245 150.720,353.095 150.222,353.709 150.396 C 354.290 150.561,356.674 151.197,359.008 151.810 M335.408 174.857 C 336.361 175.532,339.785 176.999,343.016 178.117 C 348.759 180.103,351.162 181.828,351.188 183.982 C 351.195 184.571,352.665 186.600,354.454 188.492 L 357.708 191.931 356.076 192.675 C 354.734 193.286,354.219 193.215,353.183 192.277 C 352.404 191.572,351.425 191.293,350.625 191.547 C 349.733 191.830,348.811 191.441,347.670 190.300 C 346.758 189.388,345.477 188.642,344.822 188.642 C 344.168 188.642,343.129 188.055,342.514 187.337 C 341.874 186.589,340.488 185.988,339.269 185.929 C 338.099 185.873,336.260 185.747,335.183 185.649 C 334.106 185.551,332.413 185.781,331.421 186.160 C 329.884 186.748,329.252 186.597,327.147 185.138 C 325.296 183.855,323.690 183.372,320.739 183.211 C 318.517 183.090,316.153 182.543,315.315 181.956 L 313.829 180.915 315.875 179.857 C 317.508 179.013,318.411 178.936,320.350 179.474 C 323.628 180.385,323.465 180.437,324.903 178.001 C 327.209 174.092,332.215 172.594,335.408 174.857 M363.446 186.642 C 367.235 187.314,368.227 188.377,365.602 188.954 C 363.011 189.523,359.570 188.387,358.450 186.593 C 357.632 185.284,357.675 185.224,359.108 185.669 C 359.950 185.930,361.902 186.368,363.446 186.642 M318.936 188.754 C 319.693 189.119,320.795 190.428,321.383 191.663 C 322.693 194.410,322.697 194.517,321.475 194.517 C 320.906 194.517,320.496 193.924,320.496 193.100 C 320.496 191.329,318.704 189.272,317.548 189.716 C 316.511 190.114,313.969 188.862,313.969 187.954 C 313.969 187.251,316.741 187.697,318.936 188.754 M369.125 193.523 C 371.013 193.961,373.870 196.843,373.140 197.573 C 371.955 198.758,366.551 198.050,364.868 196.490 C 363.891 195.584,362.445 194.403,361.655 193.864 C 360.048 192.770,364.918 192.547,369.125 193.523 M377.937 194.517 C 378.387 195.357,378.403 195.822,377.983 195.822 C 377.624 195.822,377.016 195.235,376.632 194.517 C 376.182 193.677,376.166 193.211,376.586 193.211 C 376.945 193.211,377.553 193.799,377.937 194.517 M328.525 195.850 C 328.816 196.960,328.713 197.065,327.951 196.433 C 327.441 196.009,327.023 195.241,327.023 194.725 C 327.023 193.412,328.098 194.217,328.525 195.850 M313.090 203.817 C 313.367 204.265,313.650 205.744,313.720 207.104 C 313.790 208.464,314.237 210.080,314.713 210.695 C 315.465 211.669,315.399 211.662,314.201 210.644 C 313.444 210.001,312.667 208.532,312.473 207.381 C 312.280 206.229,311.918 204.773,311.670 204.145 C 311.153 202.839,312.319 202.570,313.090 203.817 M398.662 205.577 C 400.762 207.329,400.501 207.679,397.356 207.329 C 395.831 207.159,394.371 206.997,394.113 206.969 C 392.561 206.803,394.763 204.754,396.867 204.406 C 397.046 204.376,397.854 204.903,398.662 205.577 M372.063 206.342 C 372.063 207.223,371.009 207.030,370.147 205.991 C 369.515 205.230,369.618 205.127,370.720 205.415 C 371.458 205.608,372.063 206.025,372.063 206.342 M407.832 213.034 C 408.492 213.446,408.508 213.770,407.902 214.500 C 407.230 215.309,406.958 215.288,405.912 214.341 C 403.795 212.425,405.259 211.429,407.832 213.034 M424.077 216.894 C 426.172 219.009,427.985 222.585,426.964 222.585 C 426.661 222.585,425.596 221.336,424.596 219.811 C 423.596 218.285,422.382 216.802,421.898 216.515 C 420.962 215.959,420.688 214.738,421.508 214.773 C 421.777 214.784,422.933 215.739,424.077 216.894 M417.583 218.844 C 416.238 220.870,415.598 220.842,414.380 218.702 C 413.323 216.844,413.332 216.780,414.707 216.551 C 417.272 216.123,418.657 217.227,417.583 218.844 M423.047 221.708 C 425.335 225.034,424.499 225.254,419.976 222.519 C 418.864 221.847,417.717 221.513,417.426 221.778 C 417.134 222.042,417.577 221.315,418.408 220.163 C 420.170 217.721,420.343 217.778,423.047 221.708 " stroke="none" fill="#762D2D" fill-rule="evenodd"></path></g></svg>