<svg id="svg" xmlns="http://www.w3.org/2000/svg" xmlns:xlink="http://www.w3.org/1999/xlink" width="400" height="400.55632823365784" viewBox="0, 0, 400,400.55632823365784"><g id="svgg"><path id="path0" d="M201.391 3.168 C 201.391 3.416,202.501 6.511,203.858 10.047 C 212.183 31.732,210.343 42.907,193.668 71.942 C 187.418 82.825,185.397 87.378,183.559 94.715 C 182.078 100.626,181.944 100.645,177.216 95.633 C 170.094 88.084,168.704 85.182,164.082 68.223 C 156.144 39.094,149.900 29.884,131.572 20.262 C 124.786 16.699,124.782 16.754,131.339 23.644 C 146.890 39.984,149.206 50.692,144.876 86.231 C 143.276 99.359,143.278 98.698,144.808 113.191 C 145.007 115.076,143.213 114.778,137.927 112.048 C 128.633 107.248,125.498 104.269,114.854 90.125 C 98.418 68.285,87.179 61.372,65.647 59.859 C 61.747 59.585,61.162 59.643,62.309 60.190 C 80.562 68.899,80.312 68.758,84.740 72.894 C 94.247 81.772,97.680 88.745,104.652 113.344 C 108.400 126.564,110.057 130.886,113.818 137.248 C 117.242 143.039,116.930 143.354,108.614 142.483 C 98.073 141.379,93.344 139.564,79.670 131.373 C 56.846 117.700,43.999 115.411,23.953 121.443 C 16.910 123.562,17.506 123.925,28.162 124.006 C 48.349 124.159,59.237 131.299,79.767 157.846 C 86.254 166.234,90.020 170.216,95.550 174.534 C 100.570 178.454,100.765 178.945,97.859 180.335 C 89.450 184.358,79.343 185.042,62.774 182.707 C 40.861 179.620,26.748 181.335,15.646 188.434 C 12.176 190.652,2.837 198.093,2.802 198.667 C 2.791 198.851,6.831 197.520,11.779 195.708 C 32.045 188.288,42.907 190.202,70.983 206.144 C 81.222 211.957,87.970 215.037,93.499 216.419 C 100.429 218.150,100.378 218.069,96.801 221.726 C 89.583 229.106,84.040 231.944,69.263 235.823 C 40.260 243.436,30.041 250.133,20.375 267.866 C 16.337 275.272,16.442 275.340,22.855 269.470 C 40.415 253.392,50.569 250.960,83.217 255.012 C 96.114 256.612,102.636 256.814,109.192 255.816 C 114.802 254.963,114.998 255.213,112.755 260.371 C 109.081 268.814,103.947 274.611,92.072 283.726 C 69.608 300.968,62.905 310.380,60.375 328.234 C 58.753 339.679,58.977 339.725,64.235 329.041 C 73.587 310.038,80.943 304.935,111.981 295.921 C 127.733 291.347,131.894 289.778,137.363 286.353 C 142.603 283.072,142.648 283.112,142.249 290.624 C 141.709 300.799,139.497 306.748,131.059 320.723 C 117.538 343.117,115.123 357.070,121.364 376.748 L 123.180 382.476 123.846 371.627 C 125.154 350.318,131.068 341.040,155.216 322.419 C 164.904 314.948,170.273 310.021,173.695 305.462 C 178.920 298.501,178.796 298.473,181.762 307.294 C 184.431 315.232,184.549 322.575,182.280 339.506 C 178.752 365.832,181.949 378.892,195.768 394.608 C 197.331 396.385,198.609 397.698,198.609 397.526 C 198.609 397.354,197.389 393.897,195.898 389.844 C 188.072 368.575,189.620 358.271,204.651 331.572 C 211.935 318.633,214.591 312.825,216.419 305.841 C 217.938 300.037,218.012 300.019,222.356 304.451 C 229.725 311.967,231.287 315.259,236.409 334.075 C 243.988 361.916,250.842 371.575,269.755 381.059 C 275.152 383.765,275.191 383.864,267.594 375.586 C 253.875 360.637,251.039 349.277,254.243 322.114 C 256.534 302.696,256.641 300.695,255.789 293.046 C 254.840 284.517,254.506 284.736,262.397 288.708 C 269.642 292.355,273.592 295.680,279.285 302.926 C 281.882 306.229,285.703 311.085,287.778 313.715 C 302.905 332.890,317.217 340.679,337.938 341.012 C 338.532 341.021,334.519 338.793,329.020 336.061 C 309.214 326.219,304.472 319.302,295.209 286.742 C 291.321 273.078,290.126 269.956,286.140 263.045 C 282.799 257.252,282.870 257.186,291.648 258.015 C 301.894 258.982,305.999 260.559,319.763 268.813 C 342.440 282.412,356.864 285.098,375.479 279.188 C 378.409 278.258,381.007 277.309,381.251 277.080 C 381.495 276.851,377.239 276.521,371.793 276.348 C 350.049 275.653,341.401 269.928,319.493 241.725 C 313.446 233.940,308.170 228.514,303.027 224.789 C 299.441 222.191,299.319 221.574,302.117 220.197 C 310.354 216.141,320.315 215.475,337.914 217.803 C 365.017 221.387,377.475 218.564,393.221 205.269 C 398.443 200.859,398.479 200.863,388.183 204.761 C 367.876 212.451,356.985 210.403,327.094 193.272 C 317.333 187.678,313.116 185.805,305.977 183.895 C 299.044 182.040,299.048 182.176,305.774 176.300 C 313.064 169.931,316.291 168.484,333.450 163.890 C 354.229 158.327,366.078 152.056,373.158 142.876 C 375.491 139.852,383.382 126.175,383.010 125.802 C 382.897 125.688,380.102 128.111,376.799 131.185 C 359.523 147.265,350.411 149.454,317.436 145.450 C 305.237 143.969,296.384 143.734,290.346 144.731 C 284.863 145.637,284.600 145.210,287.283 139.770 C 292.287 129.625,295.233 126.364,308.484 116.305 C 322.738 105.484,332.597 94.578,336.449 85.372 C 338.413 80.680,341.739 60.418,340.326 61.752 C 340.165 61.905,338.741 64.910,337.162 68.428 C 327.567 89.821,319.640 95.608,287.622 104.597 C 275.636 107.962,273.052 108.898,266.203 112.359 C 256.786 117.118,257.580 117.135,257.580 112.173 C 257.580 101.882,259.746 95.317,267.475 82.184 C 283.034 55.749,285.710 39.033,277.427 20.012 L 276.586 18.081 276.529 20.862 C 275.945 49.191,271.279 57.320,242.837 79.559 C 234.343 86.200,227.535 92.789,224.284 97.514 C 222.045 100.768,221.111 100.811,219.786 97.721 C 215.733 88.264,215.059 79.677,217.206 64.812 C 220.943 38.928,218.894 24.891,209.573 12.517 C 206.376 8.274,201.391 2.577,201.391 3.168 " stroke="none" fill="#762D2D" fill-rule="evenodd"></path></g></svg>